# xmcd CD database file
#
# Track frame offsets:
#	150
#	14075
#	24860
#	37777
#	52172
#	64790
#	79690
#	93965
#	108855
#	120225
#	131780
#	144435
#	156752
#	170012
#	181520
#	192300
#	205037
#	218037
#	229905
#	241885
#	253562
#
# Disc length: 3555 seconds
#
# Revision: 3
# Processed by: cddbd v1.4PL0 Copyright (c) Steve Scherf et al.
# Submitted via: CDex 1.50beta9
#
DISCID=110de115
DTITLE=Fernandel - Fernandel
DYEAR=1900
DGENRE=
TTITLE0=Je me mens
TTITLE1=Pour être ordonnance
TTITLE2=Pour que vous m'eussiez dit oui
TTITLE3=Amédée
TTITLE4=Javanons
TTITLE5=On n'est jamais tout seul
TTITLE6=Célestine
TTITLE7=Le papa de Pépa
TTITLE8=Ma Créole
TTITLE9=J'aime toutes les femmes
TTITLE10=Ignace
TTITLE11=Au petit bar du coin
TTITLE12=Attente
TTITLE13=Dites-lui mon amour
TTITLE14=Octavie
TTITLE15=T'aimer une demi-journée
TTITLE16=Je te veux
TTITLE17=C'est dans la Ma-Ma...
TTITLE18=Quand on m'aime ça m'émeut
TTITLE19=Le garçon épicier
TTITLE20=Francine
EXTD=
EXTT0=
EXTT1=
EXTT2=
EXTT3=
EXTT4=
EXTT5=
EXTT6=
EXTT7=
EXTT8=
EXTT9=
EXTT10=
EXTT11=
EXTT12=
EXTT13=
EXTT14=
EXTT15=
EXTT16=
EXTT17=
EXTT18=
EXTT19=
EXTT20=
PLAYORDER=
